{"accessors":[{"bufferView":0,"componentType":5126,"count":76,"max":[0.0406490862369537,-0.0157261434942484,1.06291592121124],"min":[-0.0406491495668888,-0.36830273270607,0.309855788946152],"normalized":false,"type":"VEC3"},{"bufferView":1,"componentType":5126,"count":76,"max":[1.0,0.979081213474274,1.0,1.0],"min":[-0.991282999515533,-0.802184224128723,-1.0,-1.0],"normalized":false,"type":"VEC4"},{"bufferView":2,"componentType":5126,"count":76,"max":[1.0,1.0,0.936452627182007],"min":[-1.0,-0.961282134056091,-0.591475486755371],"normalized":false,"type":"VEC3"},{"bufferView":3,"componentType":5126,"count":76,"max":[0.981689393520355,0.75],"min":[0.0280314385890961,0.0343995094299316],"normalized":false,"type":"VEC2"},{"bufferView":4,"componentType":5123,"count":168,"max":[75.0],"min":[0.0],"normalized":false,"type":"SCALAR"}],"asset":{"generator":"Godot Engine v4.5.1.stable.arch_linux@unknown","version":"2.0"},"bufferViews":[{"buffer":0,"byteLength":912,"byteStride":12,"target":34962},{"buffer":0,"byteLength":1216,"byteOffset":912,"byteStride":16,"target":34962},{"buffer":0,"byteLength":912,"byteOffset":2128,"byteStride":12,"target":34962},{"buffer":0,"byteLength":608,"byteOffset":3040,"byteStride":8,"target":34962},{"buffer":0,"byteLength":336,"byteOffset":3648,"target":34963}],"buffers":[{"byteLength":3984,"uri":"stock_ar150.bin"}],"extensionsUsed":["GODOT_single_root"],"materials":[{}],"meshes":[{"primitives":[{"attributes":{"NORMAL":2,"POSITION":0,"TANGENT":1,"TEXCOORD_0":3},"indices":4,"material":0,"mode":4}]}],"nodes":[{"children":[1],"name":"stock_ar15"},{"mesh":0,"name":"STOCK","scale":[0.5,0.5,0.5]}],"scene":0,"scenes":[{"nodes":[0]}]}