<?xml version="1.0" standalone="no"?>
<!DOCTYPE svg PUBLIC "-//W3C//DTD SVG 20010904//EN"
 "http://www.w3.org/TR/2001/REC-SVG-20010904/DTD/svg10.dtd">
<svg version="1.0" xmlns="http://www.w3.org/2000/svg"
 width="360.000000pt" height="360.000000pt" viewBox="0 0 360.000000 360.000000"
 preserveAspectRatio="xMidYMid meet">

<g transform="translate(0.000000,360.000000) scale(0.100000,-0.100000)"
fill="#000000" stroke="none">
<path d="M1234 3246 c-43 -19 -100 -90 -113 -141 -14 -54 -1 -120 35 -184 13
-24 22 -46 20 -49 -3 -2 -15 16 -27 41 -22 44 -23 45 -46 30 -25 -16 -30 -51
-13 -84 10 -18 23 -19 194 -19 l183 0 9 43 c9 39 12 42 49 48 22 3 57 9 78 14
44 9 52 -10 10 -26 -14 -5 -31 -16 -37 -24 -6 -7 -22 -15 -36 -17 -14 -2 -29
-13 -35 -25 -5 -12 -22 -25 -37 -29 -16 -3 -143 -3 -284 1 -269 7 -291 4 -279
-36 4 -11 2 -19 -5 -19 -7 0 -10 13 -8 33 l3 32 93 3 c91 3 93 3 86 25 -3 12
-9 25 -13 29 -8 9 -219 -49 -249 -68 -27 -18 -42 -53 -42 -98 0 -41 42 -235
65 -296 44 -122 53 -148 59 -181 5 -27 2 -40 -9 -49 -22 -18 -21 -120 1 -120
11 0 14 -5 9 -17 -4 -10 -13 -56 -20 -103 -7 -47 -25 -128 -39 -180 -21 -73
-29 -131 -35 -250 -6 -114 -13 -164 -25 -188 -10 -19 -14 -42 -11 -53 5 -16
-8 -35 -59 -86 -77 -78 -100 -120 -122 -228 -9 -44 -34 -118 -56 -164 -22 -47
-40 -98 -40 -115 0 -17 -9 -45 -20 -63 -10 -17 -26 -58 -34 -90 l-15 -58 28
-22 c15 -13 36 -20 45 -17 10 3 35 -12 67 -40 68 -61 150 -86 229 -70 52 11
50 34 -11 89 -52 47 -137 157 -137 177 0 14 150 314 197 394 23 39 63 94 88
122 47 52 143 214 241 405 31 61 60 107 67 104 6 -2 41 -45 77 -95 36 -50 94
-121 129 -157 51 -53 62 -71 57 -89 -4 -15 1 -32 13 -48 18 -22 18 -28 5 -78
-19 -72 -18 -166 2 -248 10 -37 18 -68 20 -70 1 -2 24 -7 51 -12 l48 -8 -52
-1 c-52 -1 -52 -2 -48 -28 24 -139 25 -182 5 -225 -11 -25 -20 -65 -20 -95 l0
-52 40 -11 c21 -6 50 -8 62 -5 14 4 48 -5 88 -23 109 -49 230 -53 230 -8 -1
29 -16 45 -82 89 -32 20 -74 55 -95 76 l-36 39 -2 149 c-1 81 2 242 7 356 l9
208 -36 142 c-20 78 -46 169 -57 202 -23 66 -90 204 -118 244 -32 44 -52 194
-50 371 0 30 11 107 25 170 13 63 22 92 19 63 l-5 -52 88 -52 c49 -28 101 -62
116 -75 20 -17 41 -24 69 -24 35 0 50 9 117 64 42 36 116 105 166 155 82 83
87 91 63 91 -16 0 -42 13 -63 31 l-36 32 -130 -88 c-98 -65 -134 -95 -141
-117 -6 -16 -13 -27 -15 -24 -3 3 2 19 11 36 19 39 14 47 -71 120 -67 58 -93
71 -93 47 0 -31 -37 -50 -91 -45 -50 5 -52 4 -106 -46 -126 -116 -299 -223
-344 -211 -38 10 -195 166 -220 219 -6 12 0 8 12 -9 12 -16 60 -67 106 -112
101 -99 116 -102 211 -46 76 45 221 158 229 179 7 18 -44 94 -63 94 -8 0 -31
-6 -51 -14 -21 -8 -70 -24 -110 -35 -40 -12 -75 -26 -78 -31 -3 -5 -16 -15
-28 -21 -19 -10 -18 -7 6 18 l27 29 -29 40 c-31 42 -81 91 -121 117 -21 15
-22 17 -6 17 18 0 110 -85 153 -142 l20 -27 89 25 c49 13 101 33 116 44 15 11
32 20 37 20 6 0 38 18 72 40 58 37 79 47 79 35 0 -2 -17 -14 -37 -25 -21 -12
-53 -32 -71 -45 -18 -13 -38 -25 -44 -27 -6 -2 5 -25 24 -50 33 -43 38 -45 54
-33 13 10 33 13 66 8 41 -5 50 -2 72 20 14 15 26 34 26 43 0 14 7 16 50 11 60
-7 68 10 10 19 -55 9 -61 24 -8 17 24 -3 44 -6 44 -7 1 0 21 -40 45 -88 l44
-87 45 20 c24 11 46 22 48 23 2 2 -13 36 -32 75 -20 39 -36 75 -36 80 0 24 83
41 200 41 66 0 120 -3 120 -8 0 -4 -14 -24 -31 -45 -38 -46 -34 -78 11 -97 30
-12 32 -11 64 26 19 22 50 48 70 59 23 12 41 32 50 56 16 40 39 49 126 49 26
0 64 7 83 15 46 19 466 22 484 4 19 -19 181 -2 192 20 6 10 6 23 1 32 -8 12
-64 14 -342 16 -183 1 -511 4 -728 8 -386 6 -396 6 -408 26 -8 12 -12 22 -10
24 2 2 26 -3 55 -10 29 -8 73 -17 98 -20 l45 -7 0 56 c0 38 -4 56 -12 55 -25
-1 -153 -26 -170 -34 -13 -5 -18 -3 -18 8 0 9 -4 18 -9 21 -14 9 -41 -4 -41
-20 0 -18 -9 -18 -51 0 -30 13 -31 14 -11 20 33 11 28 42 -8 55 -21 7 -36 22
-45 45 -21 49 -71 103 -116 127 -45 22 -129 25 -175 5z m996 -430 c0 -6 -7 -2
-15 8 -8 11 -15 25 -15 30 0 6 7 2 15 -8 8 -11 15 -25 15 -30z m-40 -10 c0 -5
-7 -1 -15 10 -8 10 -14 24 -14 29 0 6 6 1 14 -9 8 -11 15 -24 15 -30z m-40 2
c0 -19 -2 -20 -10 -8 -13 19 -13 30 0 30 6 0 10 -10 10 -22z m-300 -31 c0 -8
-3 -17 -7 -20 -9 -9 -34 13 -27 24 8 14 34 11 34 -4z m-164 -38 c13 -22 -13
-25 -71 -8 l-60 17 62 1 c35 1 65 -4 69 -10z m-1082 -1874 c11 -8 15 -15 10
-15 -6 0 -19 7 -30 15 -10 8 -14 14 -9 14 6 0 19 -6 29 -14z"/>
</g>
</svg>
