{
	"asset":{
		"generator":"Khronos glTF Blender I/O v4.5.49",
		"version":"2.0"
	},
	"scene":0,
	"scenes":[
		{
			"name":"Scene",
			"nodes":[
				6
			]
		}
	],
	"nodes":[
		{
			"mesh":0,
			"name":"BACK"
		},
		{
			"mesh":1,
			"name":"BODY"
		},
		{
			"mesh":2,
			"name":"TIRE_BACK_LEFT"
		},
		{
			"mesh":3,
			"name":"TIRE_BACK_RIGHT"
		},
		{
			"mesh":4,
			"name":"TIRE_FRONT_LEFT"
		},
		{
			"mesh":5,
			"name":"TIRE_FRONT_RIGHT"
		},
		{
			"children":[
				0,
				1,
				2,
				3,
				4,
				5
			],
			"name":"truck"
		}
	],
	"materials":[
		{
			"doubleSided":true,
			"name":"Material_0.002",
			"pbrMetallicRoughness":{
				"baseColorTexture":{
					"index":0
				}
			}
		}
	],
	"meshes":[
		{
			"name":"Mesh_1.002",
			"primitives":[
				{
					"attributes":{
						"POSITION":0,
						"NORMAL":1,
						"TEXCOORD_0":2
					},
					"indices":3,
					"material":0
				}
			]
		},
		{
			"name":"Mesh_0.002",
			"primitives":[
				{
					"attributes":{
						"POSITION":4,
						"NORMAL":5,
						"TEXCOORD_0":6
					},
					"indices":7,
					"material":0
				}
			]
		},
		{
			"name":"Mesh_4.002",
			"primitives":[
				{
					"attributes":{
						"POSITION":8,
						"NORMAL":9,
						"TEXCOORD_0":10
					},
					"indices":11,
					"material":0
				}
			]
		},
		{
			"name":"Mesh_5.002",
			"primitives":[
				{
					"attributes":{
						"POSITION":12,
						"NORMAL":13,
						"TEXCOORD_0":14
					},
					"indices":11,
					"material":0
				}
			]
		},
		{
			"name":"Mesh_3.002",
			"primitives":[
				{
					"attributes":{
						"POSITION":15,
						"NORMAL":16,
						"TEXCOORD_0":17
					},
					"indices":18,
					"material":0
				}
			]
		},
		{
			"name":"Mesh_2.002",
			"primitives":[
				{
					"attributes":{
						"POSITION":19,
						"NORMAL":20,
						"TEXCOORD_0":21
					},
					"indices":11,
					"material":0
				}
			]
		}
	],
	"textures":[
		{
			"sampler":0,
			"source":0
		}
	],
	"images":[
		{
			"mimeType":"image/png",
			"name":"truck-texture",
			"uri":"truck-texture.png"
		}
	],
	"accessors":[
		{
			"bufferView":0,
			"componentType":5126,
			"count":84,
			"max":[
				1.7987152338027954,
				4.080812931060791,
				0.38370445370674133
			],
			"min":[
				-1.7960779666900635,
				1.9457465410232544,
				-7.0928053855896
			],
			"type":"VEC3"
		},
		{
			"bufferView":1,
			"componentType":5126,
			"count":84,
			"type":"VEC3"
		},
		{
			"bufferView":2,
			"componentType":5126,
			"count":84,
			"type":"VEC2"
		},
		{
			"bufferView":3,
			"componentType":5123,
			"count":162,
			"type":"SCALAR"
		},
		{
			"bufferView":4,
			"componentType":5126,
			"count":2816,
			"max":[
				1.6643606424331665,
				3.6404552459716797,
				0.8000006079673767
			],
			"min":[
				-2.0881450176239014,
				0.6999995112419128,
				-5.3900017738342285
			],
			"type":"VEC3"
		},
		{
			"bufferView":5,
			"componentType":5126,
			"count":2816,
			"type":"VEC3"
		},
		{
			"bufferView":6,
			"componentType":5126,
			"count":2816,
			"type":"VEC2"
		},
		{
			"bufferView":7,
			"componentType":5123,
			"count":6846,
			"type":"SCALAR"
		},
		{
			"bufferView":8,
			"componentType":5126,
			"count":162,
			"max":[
				2.821899890899658,
				2.4600002765655518,
				-3.959141731262207
			],
			"min":[
				1.621199607849121,
				0.015987038612365723,
				-6.440857887268066
			],
			"type":"VEC3"
		},
		{
			"bufferView":9,
			"componentType":5126,
			"count":162,
			"type":"VEC3"
		},
		{
			"bufferView":10,
			"componentType":5126,
			"count":162,
			"type":"VEC2"
		},
		{
			"bufferView":11,
			"componentType":5123,
			"count":288,
			"type":"SCALAR"
		},
		{
			"bufferView":12,
			"componentType":5126,
			"count":162,
			"max":[
				-1.6211997270584106,
				2.4600002765655518,
				-3.959141731262207
			],
			"min":[
				-2.8220999240875244,
				0.015987038612365723,
				-6.440857887268066
			],
			"type":"VEC3"
		},
		{
			"bufferView":13,
			"componentType":5126,
			"count":162,
			"type":"VEC3"
		},
		{
			"bufferView":14,
			"componentType":5126,
			"count":162,
			"type":"VEC2"
		},
		{
			"bufferView":15,
			"componentType":5126,
			"count":162,
			"max":[
				2.821899652481079,
				2.4600002765655518,
				-0.4191422462463379
			],
			"min":[
				1.621199607849121,
				0.015987038612365723,
				-2.900858163833618
			],
			"type":"VEC3"
		},
		{
			"bufferView":16,
			"componentType":5126,
			"count":162,
			"type":"VEC3"
		},
		{
			"bufferView":17,
			"componentType":5126,
			"count":162,
			"type":"VEC2"
		},
		{
			"bufferView":18,
			"componentType":5123,
			"count":288,
			"type":"SCALAR"
		},
		{
			"bufferView":19,
			"componentType":5126,
			"count":162,
			"max":[
				-1.6211997270584106,
				2.4600002765655518,
				-0.4191422462463379
			],
			"min":[
				-2.8221001625061035,
				0.015987038612365723,
				-2.900858163833618
			],
			"type":"VEC3"
		},
		{
			"bufferView":20,
			"componentType":5126,
			"count":162,
			"type":"VEC3"
		},
		{
			"bufferView":21,
			"componentType":5126,
			"count":162,
			"type":"VEC2"
		}
	],
	"bufferViews":[
		{
			"buffer":0,
			"byteLength":1008,
			"byteOffset":0,
			"target":34962
		},
		{
			"buffer":0,
			"byteLength":1008,
			"byteOffset":1008,
			"target":34962
		},
		{
			"buffer":0,
			"byteLength":672,
			"byteOffset":2016,
			"target":34962
		},
		{
			"buffer":0,
			"byteLength":324,
			"byteOffset":2688,
			"target":34963
		},
		{
			"buffer":0,
			"byteLength":33792,
			"byteOffset":3012,
			"target":34962
		},
		{
			"buffer":0,
			"byteLength":33792,
			"byteOffset":36804,
			"target":34962
		},
		{
			"buffer":0,
			"byteLength":22528,
			"byteOffset":70596,
			"target":34962
		},
		{
			"buffer":0,
			"byteLength":13692,
			"byteOffset":93124,
			"target":34963
		},
		{
			"buffer":0,
			"byteLength":1944,
			"byteOffset":106816,
			"target":34962
		},
		{
			"buffer":0,
			"byteLength":1944,
			"byteOffset":108760,
			"target":34962
		},
		{
			"buffer":0,
			"byteLength":1296,
			"byteOffset":110704,
			"target":34962
		},
		{
			"buffer":0,
			"byteLength":576,
			"byteOffset":112000,
			"target":34963
		},
		{
			"buffer":0,
			"byteLength":1944,
			"byteOffset":112576,
			"target":34962
		},
		{
			"buffer":0,
			"byteLength":1944,
			"byteOffset":114520,
			"target":34962
		},
		{
			"buffer":0,
			"byteLength":1296,
			"byteOffset":116464,
			"target":34962
		},
		{
			"buffer":0,
			"byteLength":1944,
			"byteOffset":117760,
			"target":34962
		},
		{
			"buffer":0,
			"byteLength":1944,
			"byteOffset":119704,
			"target":34962
		},
		{
			"buffer":0,
			"byteLength":1296,
			"byteOffset":121648,
			"target":34962
		},
		{
			"buffer":0,
			"byteLength":576,
			"byteOffset":122944,
			"target":34963
		},
		{
			"buffer":0,
			"byteLength":1944,
			"byteOffset":123520,
			"target":34962
		},
		{
			"buffer":0,
			"byteLength":1944,
			"byteOffset":125464,
			"target":34962
		},
		{
			"buffer":0,
			"byteLength":1296,
			"byteOffset":127408,
			"target":34962
		}
	],
	"samplers":[
		{
			"magFilter":9729,
			"minFilter":9987
		}
	],
	"buffers":[
		{
			"byteLength":128704,
			"uri":"truck.bin"
		}
	]
}
