{"accessors":[{"bufferView":0,"componentType":5126,"count":389,"max":[0.216020122170448,0.257854431867599,0.190207183361053],"min":[-0.215730831027031,-0.213127583265305,-0.329416036605835],"normalized":false,"type":"VEC3"},{"bufferView":1,"componentType":5126,"count":389,"max":[0.983542561531067,0.951400518417358,1.0,1.0],"min":[-1.0,-0.986805617809296,-1.0,-1.0],"normalized":false,"type":"VEC4"},{"bufferView":2,"componentType":5126,"count":389,"max":[1.0,0.998768508434296,0.939735770225525],"min":[-1.0,-0.996689021587372,-0.92572683095932],"normalized":false,"type":"VEC3"},{"bufferView":3,"componentType":5126,"count":389,"max":[0.992783665657043,0.992783606052399],"min":[0.00721640884876251,0.0316686034202576],"normalized":false,"type":"VEC2"},{"bufferView":4,"componentType":5123,"count":912,"max":[388.0],"min":[0.0],"normalized":false,"type":"SCALAR"}],"asset":{"generator":"Godot Engine v4.5.1.stable.arch_linux@unknown","version":"2.0"},"bufferViews":[{"buffer":0,"byteLength":4668,"byteStride":12,"target":34962},{"buffer":0,"byteLength":6224,"byteOffset":4668,"byteStride":16,"target":34962},{"buffer":0,"byteLength":4668,"byteOffset":10892,"byteStride":12,"target":34962},{"buffer":0,"byteLength":3112,"byteOffset":15560,"byteStride":8,"target":34962},{"buffer":0,"byteLength":1824,"byteOffset":18672,"target":34963}],"buffers":[{"byteLength":20496,"uri":"backpack0.bin"}],"extensionsUsed":["GODOT_single_root"],"materials":[{}],"meshes":[{"primitives":[{"attributes":{"NORMAL":2,"POSITION":0,"TANGENT":1,"TEXCOORD_0":3},"indices":4,"material":0,"mode":4}]}],"nodes":[{"mesh":0,"name":"Backpack"}],"scene":0,"scenes":[{"nodes":[0]}]}